<?xml version="1.0" standalone="no"?>
<!DOCTYPE svg PUBLIC "-//W3C//DTD SVG 20010904//EN"
 "http://www.w3.org/TR/2001/REC-SVG-20010904/DTD/svg10.dtd">
<svg version="1.0" xmlns="http://www.w3.org/2000/svg"
 width="1920.000000pt" height="1920.000000pt" viewBox="0 0 1920.000000 1920.000000"
 preserveAspectRatio="xMidYMid meet">
<metadata>
Created by potrace 1.14, written by Peter Selinger 2001-2017
</metadata>
<g transform="translate(0.000000,1920.000000) scale(0.100000,-0.100000)"
fill="#000000" stroke="none">
<path d="M9325 19189 c-75 -9 -218 -33 -300 -50 -136 -28 -416 -105 -470 -129
-11 -5 -51 -19 -90 -31 -38 -12 -89 -31 -112 -41 -23 -11 -48 -21 -55 -22 -17
-4 -26 -7 -183 -74 -399 -167 -885 -427 -1360 -724 -104 -66 -199 -125 -210
-131 -11 -7 -22 -14 -25 -17 -7 -7 -123 -84 -133 -89 -58 -25 -891 -623 -1122
-805 -11 -9 -110 -86 -220 -173 -167 -131 -273 -215 -430 -344 -69 -57 -366
-306 -437 -366 l-85 -73 -1714 -3 c-1930 -3 -1745 5 -1924 -82 -205 -98 -361
-287 -432 -520 -17 -58 -18 -330 -20 -7430 -1 -6514 0 -7378 14 -7440 53 -250
229 -468 464 -574 35 -16 84 -34 109 -41 25 -7 54 -15 65 -19 11 -3 4024 -7
8918 -8 7867 -3 8906 -1 8970 12 320 66 568 308 637 620 19 89 20 152 20 7425
0 7919 3 7385 -50 7527 -95 255 -311 447 -576 512 -77 19 -132 19 -1793 20
l-1714 1 -56 48 c-31 26 -62 51 -69 57 -7 5 -23 19 -35 31 -12 12 -76 66 -142
120 -66 54 -126 105 -133 112 -8 7 -30 25 -50 40 -21 15 -43 32 -50 39 -7 7
-34 29 -60 50 -26 21 -49 40 -52 43 -3 3 -54 45 -115 93 -60 49 -117 94 -125
100 -526 421 -1209 909 -1740 1243 -145 91 -380 234 -385 234 -2 0 -36 19 -77
43 -40 24 -113 65 -163 92 -49 26 -94 51 -100 56 -18 13 -429 216 -515 254
-47 20 -103 45 -125 55 -22 10 -76 32 -120 50 -44 18 -89 36 -100 41 -77 35
-398 139 -550 179 -95 25 -297 66 -370 75 -32 4 -68 9 -80 12 -36 9 -458 10
-530 2z"/>
</g>
</svg>
