<svg width="176" height="60" viewBox="0 0 176 60" fill="none" xmlns="http://www.w3.org/2000/svg">
<g clip-path="url(#clip0_3450_5917)"  fill="#231F20">
<path d="M16.9723 19.9694C16.3343 20.3059 15.4906 20.594 14.3433 20.594C12.4792 20.594 11.3492 19.9539 10.4556 19.1031C9.2295 17.9177 8.75098 16.5873 8.75098 15.0152C8.75098 13.0756 9.54659 11.6814 10.4556 10.8325C11.5222 9.82308 12.8444 9.42086 14.3587 9.42086C15.1082 9.42086 15.9999 9.54849 16.9704 10.0783V12.5148C15.998 11.3933 14.7873 11.3121 14.4048 11.3121C12.2697 11.3121 10.8841 13.0756 10.8841 15.0461C10.8841 17.4188 12.7002 18.7009 14.4836 18.7009C15.4714 18.7009 16.3477 18.2677 16.9685 17.5309V19.9675L16.9723 19.9694Z"/>
<path d="M29.8079 15.0171C29.8079 18.2716 27.4825 20.5959 24.1367 20.5959C20.7909 20.5959 18.4656 18.2716 18.4656 15.0171C18.4656 11.7626 20.7909 9.4228 24.1367 9.4228C27.4825 9.4228 29.8079 11.7626 29.8079 15.0171ZM27.6747 15.0171C27.6747 12.8532 26.2084 11.314 24.1387 11.314C22.0689 11.314 20.6026 12.8532 20.6026 15.0171C20.6026 17.1809 22.0689 18.7028 24.1387 18.7028C26.2084 18.7028 27.6747 17.1809 27.6747 15.0171Z"/>
<path d="M33.2478 9.66451H34.7449L37.5641 16.4597L40.5121 9.66451H42.0092L43.7926 20.3561H41.6901L40.735 13.7679L37.8831 20.3561H37.1817L34.4585 13.7679L33.3746 20.3561H31.2722L33.2478 9.66451Z"/>
<path d="M47.1999 9.66451H48.697L51.5162 16.4597L54.4642 9.66451H55.9613L57.7447 20.3561H55.6423L54.6872 13.7679L51.8353 20.3561H51.1338L48.4107 13.7679L47.3268 20.3561H45.2244L47.1999 9.66451Z"/>
<path d="M70.5493 15.0171C70.5493 18.2716 68.224 20.5959 64.8782 20.5959C61.5324 20.5959 59.207 18.2716 59.207 15.0171C59.207 11.7626 61.5324 9.4228 64.8782 9.4228C68.224 9.4228 70.5493 11.7626 70.5493 15.0171ZM68.4142 15.0171C68.4142 12.8532 66.9479 11.314 64.8782 11.314C62.8084 11.314 61.3421 12.8532 61.3421 15.0171C61.3421 17.1809 62.8084 18.7028 64.8782 18.7028C66.9479 18.7028 68.4142 17.1809 68.4142 15.0171Z"/>
<path d="M72.5539 20.3542V9.66258H73.9876L80.4543 16.7961V9.66258H82.526V20.3542H81.0924L74.6237 13.2052V20.3542H72.552H72.5539Z"/>
<path d="M94.7408 11.459H90.9184V13.8472H94.5832V15.6417H90.9184V18.5597H94.7408V20.3542H88.8467V9.66258H94.7408V11.4571V11.459Z"/>
<path d="M98.9128 9.66451V16.3804C98.9128 17.1983 99.1838 17.6953 99.4221 17.968C99.7238 18.3373 100.283 18.7047 101.111 18.7047C101.94 18.7047 102.497 18.3354 102.801 17.968C103.039 17.6953 103.31 17.1983 103.31 16.3804V9.66451H105.381V16.2044C105.381 17.2138 105.222 18.2406 104.586 19.0586C103.821 20.068 102.483 20.5979 101.113 20.5979C99.743 20.5979 98.4054 20.0699 97.6406 19.0586C97.0025 18.2406 96.845 17.2157 96.845 16.2044V9.66451H98.9166H98.9128Z"/>
<path d="M110.97 9.66451C112.436 9.66451 113.184 10.0493 113.678 10.4651C114.491 11.1535 114.729 12.0681 114.729 12.8687C114.729 13.911 114.314 14.8237 113.486 15.3845C113.215 15.5759 112.832 15.7538 112.323 15.8486L115.636 20.3523H113.055L110.219 16.0574H109.963V20.3523H107.891V9.66065H110.966L110.97 9.66451ZM109.967 14.5839H110.557C110.955 14.5839 112.596 14.5356 112.596 12.9654C112.596 11.3952 110.97 11.3623 110.59 11.3623H109.969V14.5839H109.967Z"/>
<path d="M127.964 15.0171C127.964 18.2716 125.639 20.5959 122.293 20.5959C118.947 20.5959 116.622 18.2716 116.622 15.0171C116.622 11.7626 118.947 9.4228 122.293 9.4228C125.639 9.4228 127.964 11.7626 127.964 15.0171ZM125.831 15.0171C125.831 12.8532 124.365 11.314 122.295 11.314C120.225 11.314 118.759 12.8532 118.759 15.0171C118.759 17.1809 120.225 18.7028 122.295 18.7028C124.365 18.7028 125.831 17.1809 125.831 15.0171Z"/>
<path d="M133.061 9.66451C134.256 9.66451 135.085 9.79214 135.865 10.4825C136.726 11.2521 136.949 12.2944 136.949 13.064C136.949 13.4798 136.885 14.6342 136.072 15.4522C135.482 16.0458 134.606 16.3978 133.38 16.3978H132.042V20.3561H129.971V9.66451H133.061ZM132.04 14.5994H132.884C133.282 14.5994 133.791 14.5994 134.239 14.2629C134.621 13.9593 134.812 13.4778 134.812 13.0118C134.812 12.4182 134.525 12.0179 134.222 11.7936C133.791 11.488 133.249 11.4571 132.755 11.4571H132.039V14.5994H132.04Z"/>
<path d="M144.465 11.459H140.642V13.8472H144.307V15.6417H140.642V18.5597H144.465V20.3542H138.571V9.66258H144.465V11.4571V11.459Z"/>
<path d="M152.857 18.1111H148.572L147.632 20.3542H145.385L149.957 9.66258H151.581L156.026 20.3542H153.797L152.857 18.1111ZM152.252 16.4113L150.737 12.5651L149.225 16.4113H152.252Z"/>
<path d="M157.364 20.3542V9.66258H158.797L165.264 16.7961V9.66258H167.336V20.3542H165.902L159.433 13.2052V20.3542H157.362H157.364Z"/>
<path d="M51.9445 25.1131C53.4262 25.1131 54.7157 25.2736 55.8957 26.1554C57.1852 27.1339 57.9347 28.6886 57.9347 30.4676C57.9347 32.2467 57.2025 33.7859 55.7996 34.7799C54.5562 35.6617 53.3935 35.8067 51.9118 35.8067H49.1714V25.1151H51.9426L51.9445 25.1131ZM51.2431 34.0083H51.8811C52.4057 34.0083 53.553 33.9754 54.4774 33.3025C55.3211 32.6934 55.7996 31.6027 55.7996 30.4657C55.7996 29.3287 55.3384 28.2535 54.4928 27.6115C53.6337 26.9695 52.5806 26.9057 51.8811 26.9057H51.2431V34.0064V34.0083Z"/>
<path d="M65.8967 33.5597H61.6111L60.6714 35.8028H58.4248L62.9967 25.1112H64.6206L69.0657 35.8028H66.8364L65.8967 33.5597ZM65.2913 31.8619L63.7769 28.0157L62.2645 31.8619H65.2913Z"/>
<path d="M73.2051 26.9076V35.8047H71.1334V26.9076H68.7446V25.1131H75.5938V26.9076H73.2051Z"/>
<path d="M82.6659 33.5597H78.3804L77.4406 35.8028H75.1941L79.766 25.1112H81.3899L85.8349 35.8028H83.6057L82.6659 33.5597ZM82.0625 31.8619L80.5482 28.0157L79.0357 31.8619H82.0625Z"/>
<path d="M96.2049 27.5496C95.5841 26.7162 94.85 26.6369 94.4695 26.6369C93.3549 26.6369 93.0032 27.3427 93.0032 27.888C93.0032 28.1452 93.082 28.385 93.3376 28.6093C93.5932 28.8491 93.9429 28.9787 94.6117 29.2184C95.44 29.5066 96.2202 29.7947 96.7622 30.2917C97.2407 30.7248 97.6693 31.4461 97.6693 32.5348C97.6693 34.6194 96.1722 36.0445 93.9737 36.0445C92.0135 36.0445 90.8681 34.8417 90.3108 34.0257L91.6656 32.7282C92.1749 33.7705 93.1473 34.1553 93.8949 34.1553C94.8346 34.1553 95.5361 33.579 95.5361 32.6798C95.5361 32.295 95.4092 31.9914 95.121 31.7188C94.7232 31.3494 94.0852 31.1425 93.4798 30.9337C92.9225 30.7422 92.2537 30.485 91.7118 30.0035C91.362 29.6999 90.8681 29.1063 90.8681 28.0157C90.8681 26.4455 91.9193 24.8733 94.2773 24.8733C94.9461 24.8733 96.2049 25.001 97.2887 26.1245L96.2049 27.5516V27.5496Z"/>
<path d="M102.67 25.1131C103.865 25.1131 104.693 25.2408 105.474 25.9311C106.335 26.7007 106.558 27.743 106.558 28.5126C106.558 28.9284 106.494 30.0828 105.681 30.9008C105.091 31.4945 104.215 31.8464 102.989 31.8464H101.651V35.8047H99.5796V25.1131H102.67ZM101.651 30.05H102.495C102.893 30.05 103.402 30.05 103.85 29.7135C104.232 29.4099 104.422 28.9284 104.422 28.4624C104.422 27.8687 104.136 27.4684 103.832 27.2441C103.402 26.9386 102.86 26.9076 102.366 26.9076H101.649V30.05H101.651Z"/>
<path d="M113.516 33.5597H109.231L108.291 35.8028H106.044L110.616 25.1112H112.24L116.685 35.8028H114.456L113.516 33.5597ZM112.911 31.8619L111.397 28.0157L109.884 31.8619H112.911Z"/>
<path d="M125.399 35.4199C124.761 35.7564 123.917 36.0445 122.77 36.0445C120.905 36.0445 119.775 35.4045 118.882 34.5536C117.656 33.3682 117.177 32.0378 117.177 30.4657C117.177 28.5262 117.973 27.1319 118.882 26.283C119.948 25.2736 121.271 24.8714 122.785 24.8714C123.534 24.8714 124.426 24.999 125.397 25.5289V27.9654C124.424 26.8438 123.214 26.7626 122.831 26.7626C120.696 26.7626 119.31 28.5262 119.31 30.4966C119.31 32.8693 121.126 34.1514 122.91 34.1514C123.898 34.1514 124.774 33.7182 125.395 32.9815V35.418L125.399 35.4199Z"/>
<path d="M133.297 26.9076H129.475V29.2958H133.139V31.0903H129.475V34.0083H133.297V35.8028H127.403V25.1112H133.297V26.9057V26.9076Z"/>
<path d="M144.845 26.9076H141.276V29.2958H144.622V31.0903H141.276V35.8028H139.205V25.1112H144.843V26.9057L144.845 26.9076Z"/>
<path d="M157.555 30.4676C157.555 33.7221 155.23 36.0465 151.884 36.0465C148.538 36.0465 146.213 33.7221 146.213 30.4676C146.213 27.2132 148.538 24.8733 151.884 24.8733C155.23 24.8733 157.555 27.2132 157.555 30.4676ZM155.42 30.4676C155.42 28.3038 153.954 26.7645 151.884 26.7645C149.815 26.7645 148.348 28.3038 148.348 30.4676C148.348 32.6315 149.815 34.1533 151.884 34.1533C153.954 34.1533 155.42 32.6315 155.42 30.4676Z"/>
<path d="M162.633 25.1131C164.099 25.1131 164.847 25.4979 165.341 25.9137C166.154 26.6021 166.392 27.5168 166.392 28.3173C166.392 29.3596 165.977 30.2723 165.148 30.8331C164.878 31.0246 164.495 31.2025 163.986 31.2972L167.299 35.8009H164.718L161.881 31.5061H161.626V35.8009H159.554V25.1093H162.629L162.633 25.1131ZM161.63 30.0345H162.22C162.618 30.0345 164.259 29.9861 164.259 28.4159C164.259 26.8458 162.633 26.8129 162.252 26.8129H161.632V30.0345H161.63Z"/>
<path d="M30.8129 50.8862C30.1749 51.2227 29.3312 51.5108 28.1839 51.5108C26.3198 51.5108 25.1898 50.8708 24.2962 50.0199C23.0701 48.8346 22.5916 47.5041 22.5916 45.932C22.5916 43.9925 23.3872 42.5983 24.2962 41.7494C25.3628 40.7399 26.6849 40.3377 28.1993 40.3377C28.9488 40.3377 29.8405 40.4654 30.811 40.9952V43.4317C29.8386 42.3101 28.6278 42.2289 28.2454 42.2289C26.1103 42.2289 24.7247 43.9925 24.7247 45.963C24.7247 48.3357 26.5408 49.6177 28.3242 49.6177C29.312 49.6177 30.1883 49.1846 30.8091 48.4478V50.8843L30.8129 50.8862Z"/>
<path d="M34.8889 40.5791V47.295C34.8889 48.113 35.1598 48.6099 35.3981 48.8826C35.6999 49.2519 36.2591 49.6194 37.0874 49.6194C37.9157 49.6194 38.473 49.25 38.7766 48.8826C39.0149 48.6099 39.2859 48.113 39.2859 47.295V40.5791H41.3576V47.119C41.3576 48.1284 41.1981 49.1553 40.5619 49.9732C39.7971 50.9826 38.4595 51.5125 37.0893 51.5125C35.7191 51.5125 34.3815 50.9846 33.6167 49.9732C32.9786 49.1553 32.821 48.1304 32.821 47.119V40.5791H34.8927H34.8889Z"/>
<path d="M45.9411 40.5791V49.4743H49.2235V51.2688H43.8713V40.5772H45.943L45.9411 40.5791Z"/>
<path d="M53.8108 42.3736V51.2708H51.7391V42.3736H49.3503V40.5791H56.1995V42.3736H53.8108Z"/>
<path d="M59.6704 40.5791V47.295C59.6704 48.113 59.9413 48.6099 60.1796 48.8826C60.4814 49.2519 61.0406 49.6194 61.8689 49.6194C62.6972 49.6194 63.2545 49.25 63.5581 48.8826C63.7964 48.6099 64.0674 48.113 64.0674 47.295V40.5791H66.1391V47.119C66.1391 48.1284 65.9795 49.1553 65.3434 49.9732C64.5786 50.9826 63.241 51.5125 61.8708 51.5125C60.5006 51.5125 59.163 50.9846 58.3982 49.9732C57.7601 49.1553 57.6025 48.1304 57.6025 47.119V40.5791H59.6742H59.6704Z"/>
<path d="M71.7274 40.5791C73.1937 40.5791 73.9412 40.964 74.4351 41.3797C75.2481 42.0681 75.4864 42.9828 75.4864 43.7833C75.4864 44.8256 75.0713 45.7383 74.243 46.2991C73.972 46.4906 73.5896 46.6685 73.0803 46.7632L76.3934 51.2669H73.8125L70.976 46.9721H70.7204V51.2669H68.6487V40.5753H71.7235L71.7274 40.5791ZM70.7242 45.4986H71.3142C71.712 45.4986 73.3532 45.4502 73.3532 43.88C73.3532 42.3098 71.7274 42.277 71.3469 42.277H70.7261V45.4986H70.7242Z"/>
<path d="M84.1825 49.0257H79.897L78.9572 51.2688H76.7107L81.2826 40.5772H82.9065L87.3516 51.2688H85.1223L84.1825 49.0257ZM83.5772 47.3259L82.0628 43.4797L80.5504 47.3259H83.5772Z"/>
<path d="M90.7587 40.5791V49.4743H94.0411V51.2688H88.689V40.5772H90.7606L90.7587 40.5791Z"/>
<path d="M101.446 44.7135H105.939V40.5772H108.01V51.2688H105.939V46.508H101.446V51.2688H99.374V40.5772H101.446V44.7135Z"/>
<path d="M116.418 42.3736H112.596V44.7618H116.261V46.5563H112.596V49.4743H116.418V51.2688H110.524V40.5772H116.418V42.3717V42.3736Z"/>
<path d="M121.594 40.5791C123.06 40.5791 123.807 40.964 124.301 41.3797C125.114 42.0681 125.353 42.9828 125.353 43.7833C125.353 44.8256 124.937 45.7383 124.109 46.2991C123.838 46.4906 123.456 46.6685 122.947 46.7632L126.26 51.2669H123.679L120.842 46.9721H120.587V51.2669H118.515V40.5753H121.59L121.594 40.5791ZM120.59 45.4986H121.18C121.578 45.4986 123.219 45.4502 123.219 43.88C123.219 42.3098 121.594 42.277 121.213 42.277H120.592V45.4986H120.59Z"/>
<path d="M129.827 40.5791V51.2708H127.755V40.5791H129.827Z"/>
<path d="M135.688 42.3736V51.2708H133.616V42.3736H131.228V40.5791H138.077V42.3736H135.688Z"/>
<path d="M145.151 49.0257H140.865L139.926 51.2688H137.679L142.251 40.5772H143.875L148.32 51.2688H146.091L145.151 49.0257ZM144.545 47.3259L143.031 43.4797L141.519 47.3259H144.545Z"/>
<path d="M154.562 45.5469H159.437V45.6745C159.437 46.3958 159.341 48.6389 157.877 50.0989C156.777 51.205 155.423 51.5086 154.1 51.5086C152.778 51.5086 151.408 51.2359 150.245 50.066C149.878 49.6967 148.667 48.3508 148.667 45.9472C148.667 43.88 149.592 42.6134 150.228 41.9714C151.024 41.1535 152.363 40.3355 154.417 40.3355C155.213 40.3355 156.059 40.4631 156.872 40.8963C157.556 41.2482 158.305 41.8902 158.862 42.8513L157.062 43.8297C156.695 43.1085 156.155 42.7391 155.818 42.5632C155.373 42.3388 154.815 42.2267 154.321 42.2267C153.478 42.2267 152.521 42.5303 151.869 43.1723C151.264 43.7659 150.803 44.7908 150.803 45.9936C150.803 47.4207 151.408 48.2696 151.854 48.7028C152.332 49.1669 153.08 49.6155 154.212 49.6155C154.913 49.6155 155.709 49.424 156.299 48.9754C156.714 48.6544 157.127 48.1091 157.302 47.3395H154.562V45.545V45.5469Z"/>
<path d="M167.336 42.3736H163.513V44.7618H167.178V46.5563H163.513V49.4743H167.336V51.2688H161.442V40.5772H167.336V42.3717V42.3736Z"/>
<path d="M-0.327637 12.8823V0.345849H11.9948V4.87852H4.177V12.8823H-0.327637Z" fill="#FFAC01"/>
<path d="M176.329 47.8094V60.3458H164.005V55.8131H171.823V47.8094H176.329Z" fill="#FFAC01"/>
</g>
<defs>
<clipPath id="clip0_3450_5917">
<rect width="176" height="60"/>
</clipPath>
</defs>
</svg>
